# xmcd CD database file
#
# Track frame offsets:
#	150
#	29162
#	46528
#	58986
#	72753
#	94687
#	106328
#	166152
#	191077
#	209481
#	264096
#
# Disc length: 4307 seconds
#
# Revision: 0
# Processed by: cddbd v1.5.2PL0 Copyright (c) Steve Scherf et al.
# Submitted via: CDex 1.70beta2
#
DISCID=9610d10b
DTITLE=Dolphy, Eric - Hot and Cool Latin - 1959 - Here And There
DYEAR=1961
DGENRE=Jazz
TTITLE0=April Rain
TTITLE1=Night In Tunesia
TTITLE2=Lover
TTITLE3=I Wish I Were In Love Again
TTITLE4=Speak Low
TTITLE5=I got Rythm
TTITLE6=Status Seeking
TTITLE7=God Bless The Child
TTITLE8=April Fool
TTITLE9=G. W. (Take 1)
TTITLE10=Don't Blame Me
EXTD=YEAR: 1961
EXTT0=
EXTT1=
EXTT2=
EXTT3=
EXTT4=
EXTT5=
EXTT6=
EXTT7=
EXTT8=
EXTT9=
EXTT10=
PLAYORDER=
